# xmcd CD database file
#
# Track frame offsets:
#	150
#	23363
#	33028
#	47600
#	69548
#	88810
#	111278
#	132468
#	153180
#	170500
#
# Disc length: 2436 seconds
#
# Revision: 0
# Processed by: cddbd v1.5.1PL2 Copyright (c) Steve Scherf et al.
# Submitted via: CDex 1.50
#
DISCID=7609820a
DTITLE=ShunZa - Songs For Lovers
DYEAR=2006
DGENRE=Jazz
TTITLE0=Smooth Operator
TTITLE1=Bizarre Love Triangle
TTITLE2=Lex Yeux Ouverts
TTITLE3=My Funny Valentine
TTITLE4=Feel like Making Love
TTITLE5=Song For You
TTITLE6=You Are The Sunshine Of My Life
TTITLE7=A Natural Woman
TTITLE8=Just The Way You are
TTITLE9=Ben
EXTD=YEAR: 2006
EXTT0=
EXTT1=
EXTT2=
EXTT3=
EXTT4=
EXTT5=
EXTT6=
EXTT7=
EXTT8=
EXTT9=
PLAYORDER=
